<svg width="97" height="91" viewBox="0 0 97 91" fill="none" xmlns="http://www.w3.org/2000/svg">
<path d="M36.8121 54.7861C37.9485 54.0347 39.1986 53.5056 40.3399 52.6527C43.3965 50.3687 44.4679 46.433 45.8008 43.3405C47.1036 40.3209 49.8906 37.7267 51.7341 42.2676C51.5917 42.569 51.0944 43.6633 50.8919 43.8432C49.2164 45.3297 48.9694 45.9147 48.5433 47.9341C48.0893 50.0877 47.3717 52.5202 45.7963 54.3702C45.4559 54.8027 44.9185 55.4501 44.6437 55.8828C44.7449 56.2829 44.8584 56.6773 44.9052 57.0832C44.0618 57.8694 43.3275 58.6008 42.3425 59.2767C43.6925 62.5612 44.2243 67.0213 44.1609 70.4545L42.5601 70.9073C43.6413 73.0776 43.8059 76.1473 44.2432 78.5107C44.3689 79.1908 44.3811 79.9368 43.6791 80.3986C43.5478 82.762 43.0138 84.5896 43.4666 87.099C44.6059 87.9073 48.046 88.7471 48.4342 89.6284C48.0115 90.6766 40.8235 90.3437 39.5351 90.1461C39.062 90.0731 38.5183 89.7042 38.1662 89.4525C38.4423 88.757 38.9086 87.6854 39.1067 87.0025C38.756 86.3873 38.4185 85.8299 38.3018 85.1515C38.0344 84.2783 38.094 81.9935 38.0952 81.0328C37.4939 81.0337 36.9428 81.0138 36.3448 80.9904C36.2544 80.2877 36.3392 79.5255 35.9688 78.9022L35.7817 78.8715C35.1824 79.3027 34.776 80.0008 34.3721 80.5827C33.7729 80.5439 33.2229 80.4428 32.6342 80.3481C32.1609 81.1329 31.7178 81.9881 31.0329 82.7593C30.1577 83.7452 27.4385 85.7063 27.1969 86.8744C27.0042 87.8062 29.5105 89.0222 29.6194 90.1498C29.2327 90.9896 27.2863 91.1564 26.5486 90.8714C24.8885 90.2309 22.0526 87.3588 21.2918 86.1041C21.8075 85.4095 22.9232 84.6283 23.333 84.1024C24.9096 82.0792 25.073 81.3837 27.2631 79.6806L25.7059 79.189C26.6723 77.0935 27.6377 74.9674 28.2793 72.789C28.4918 72.0683 28.7597 71.3998 29.0777 70.7071C28.4386 70.4292 27.9502 70.174 27.3435 69.8546C28.5101 68.2192 29.0102 66.4476 29.6981 64.6655C28.7656 65.3129 27.7025 66.4738 26.6409 67.2324C25.4933 68.1155 24.0436 68.7442 22.9763 69.695C22.3277 70.2723 21.2244 72.5797 20.2138 72.6149C19.6808 72.218 19.7961 71.4071 19.151 71.3241C18.2106 71.8446 18.2356 73.0668 17.2935 73.2247C16.3875 73.3762 16.1942 72.1657 16.1703 71.6362C16.0851 69.7482 18.3578 69.3197 19.7165 68.2418C20.911 67.2306 21.8446 66.0334 22.912 64.9322C23.2714 64.5613 24.619 63.4705 24.6639 63.1166C24.5906 62.967 24.505 62.8087 24.4602 62.6517C24.2995 62.0889 28.0086 58.2614 28.664 57.645C29.1248 57.2117 29.9654 56.7512 30.2666 56.2516C30.3669 56.0852 30.3439 56.1601 30.2698 55.9574C29.7084 55.8939 29.2054 56.337 28.4525 56.1886C26.4143 55.787 25.0551 55.7455 23.7059 54.3597C22.3003 53.7371 21.4758 53.1992 20.9585 51.8769C20.4662 50.6183 21.0668 49.5982 20.7653 48.4457C21.5537 47.0454 22.0816 46.0421 23.4949 44.9997C26.6713 42.6568 32.9449 41.5277 35.6647 44.9151C36.2946 45.6995 34.9835 46.4375 36.6825 47.629L38.0871 47.8251C38.2476 48.5682 38.3796 49.3289 38.6232 50.0569C38.7127 50.3244 39.25 50.7314 39.2703 50.9571C39.4077 52.4804 36.7741 52.9351 36.1459 54.1747C36.1336 54.199 36.2015 54.6546 36.2123 54.716L36.8121 54.7861Z" fill="#1D7523"/>
<path d="M21.0244 48.0047C21.7814 46.4473 22.2883 45.3312 23.6454 44.1718C26.6956 41.5658 32.7198 40.3099 35.3314 44.0777C35.9363 44.9502 34.6773 45.7711 36.3088 47.0964L37.6575 47.3145C37.8117 48.141 37.9384 48.9871 38.1724 49.7969C38.2583 50.0944 38.7742 50.5472 38.7937 50.7982C38.9257 52.4926 36.3968 52.9984 35.7935 54.3771C35.7817 54.4041 35.8469 54.9109 35.8573 54.9791C35.4502 54.7072 35.4572 54.6559 35.3647 54.2635C35.5988 53.1816 37.1905 52.6803 36.7732 50.9809C36.5789 51.0849 36.6702 51.082 36.5086 51.048C36.6167 50.5963 36.7181 50.5117 36.3076 50.2471C36.1201 50.3827 36.035 50.4448 35.831 50.5551C35.5759 50.2825 35.0651 49.6273 34.6786 49.6523C34.6765 49.9604 34.68 49.9746 34.6019 50.2717L34.368 50.4009C34.0277 50.405 33.9711 50.3361 33.704 50.1625L33.4647 50.3088L33.3142 50.2569C33.3413 49.9834 33.3481 49.8588 33.3407 49.5847C32.7578 49.5822 32.8244 50.4902 31.7167 50.2878C31.6155 49.858 31.6306 49.5208 31.1246 49.452C31.0141 49.7536 30.9975 49.8998 30.9468 50.2082L30.8137 50.2705C30.4927 49.6006 30.4196 49.8059 29.6786 49.6652C29.3696 49.3799 29.4778 49.55 29.3898 49.1134L29.2719 49.2571C29.2695 49.5242 29.3015 49.5405 29.1379 49.7472C28.4618 49.6896 29.1818 49.5991 28.7904 49.3619C28.7406 49.6484 28.7778 49.5667 28.6456 49.8194C28.1343 49.7747 28.4463 49.5086 27.9638 49.4262C28.0142 49.6739 28.0068 49.6956 27.9939 49.9503C27.7313 50.245 27.8903 50.1677 27.5506 50.2868C27.5604 50.077 27.5752 49.8674 27.5949 49.6582L27.2452 49.9019C26.992 49.8608 26.9219 49.8914 26.6812 49.9725C26.7038 49.69 26.7029 49.652 26.668 49.3707C26.0983 49.3857 26.0848 49.8468 26.1866 50.2427L26.0542 50.2676C25.711 50.0191 25.7128 49.7897 25.5393 49.3554L25.4051 49.354C25.386 49.6826 25.4283 49.7193 25.2669 49.9859C24.6239 49.7765 24.5058 49.4013 23.8923 49.8449C23.673 50.5022 23.5397 50.751 23.0318 51.1731C22.9153 51.2699 23.1348 52.2226 23.1513 52.5607C22.7735 52.8849 22.8281 52.4887 22.3707 52.7063C22.4568 53.3275 23.3308 53.5895 23.8827 54.1702L23.848 54.5829C22.4984 53.8903 21.7066 53.292 21.2098 51.8212C20.7371 50.4214 21.3139 49.2867 21.0244 48.0047Z" fill="#4E9422"/>
<path d="M37.1836 54.9792C38.2916 54.218 39.5105 53.6821 40.6234 52.8182C43.6038 50.5048 44.6484 46.5184 45.948 43.386C47.2184 40.3275 49.9358 37.6999 51.7334 42.2992C51.5945 42.6045 51.1096 43.7129 50.9122 43.8952C49.2784 45.4008 49.0376 45.9934 48.6221 48.0388C48.1795 50.2201 47.4798 52.684 45.9437 54.5579C45.8396 54.3148 45.8504 54.3305 45.6335 54.1474C45.8504 53.6142 47.1218 52.0768 47.2368 51.6181C47.1771 51.8561 46.7497 50.3573 46.7584 50.3811L46.241 50.2914C45.973 49.8929 46.3983 49.5446 46.0218 49.4492C45.6573 49.7648 45.3981 50.1975 45.0553 50.3143C44.8296 50.1531 44.7906 49.9861 44.6853 49.7507L44.5107 49.7212L44.3208 49.8969C44.4044 50.1365 44.4478 50.219 44.5714 50.4475C44.5139 50.7345 44.5975 50.6233 44.3859 50.8189C44.1266 50.7453 44.0811 50.7203 43.8403 50.6059C43.7524 50.7579 43.7112 50.8473 43.6385 51.0036C43.3987 51.0546 43.3163 51.0643 43.069 51.0858C41.394 52.4934 40.0694 54.6307 37.1836 54.9792Z" fill="#4E9422"/>
<path d="M43.2677 85.9578C43.4106 84.86 43.0527 84.0446 43.2183 83.0076C43.3654 82.0802 43.2855 80.3268 44.0717 79.625C44.1169 79.7954 44.1022 79.823 44.0549 79.9901L44.0086 80.1467C43.8846 82.2725 43.3801 83.9164 43.8079 86.1736C44.8841 86.9006 48.1338 87.656 48.5006 88.4487C48.1013 89.3915 41.311 89.0921 40.0939 88.9145C39.6471 88.8487 39.1334 88.5169 38.8008 88.2905C39.0616 87.6649 39.5021 86.701 39.6892 86.0868C39.3579 85.5334 39.0392 85.032 38.9289 84.4219C39.0249 83.8669 39.0375 81.3289 38.9763 80.7828L38.9625 80.6676L39.0492 80.6912C39.527 81.5642 38.9663 83.3581 39.3192 84.2142C40.0978 86.1022 40.1679 86.1428 39.4094 88.0341C39.0739 88.8706 41.5906 88.5331 41.9595 88.6313C41.8836 88.7603 41.8484 88.7514 41.8793 88.8431C42.3243 88.65 42.386 88.5988 42.8696 88.7506L43.0067 88.4942L43.1331 88.4747L43.2582 88.7303C43.7101 88.7506 43.9256 88.7733 44.3681 88.7214L44.2441 88.6102C44.4679 88.4601 44.7843 88.4276 45.0702 88.4593C45.087 88.6418 45.0386 88.5753 45.1647 88.6759C45.4653 88.3976 45.5515 88.2532 46.0329 88.3408C46.3345 88.5988 46.1811 88.6386 46.3881 88.8163C46.716 88.5234 46.8852 88.7173 47.1638 88.4082L46.8789 88.2946C46.7287 88.0106 46.695 88.1104 46.7896 87.9132L47.128 88.0081C47.1207 87.91 47.0419 87.8491 46.9157 87.811C45.4412 87.3607 44.1821 87.0239 43.2677 85.9578Z" fill="#116924"/>
<path d="M61.1872 41.7083C61.1133 41.978 60.9824 43.2461 61.0352 43.4824L61.1924 43.5134C61.3908 43.3493 61.5713 43.1989 61.7613 43.0255C61.8489 43.2384 61.832 43.1513 61.7898 43.3862C62.0768 43.5944 62.2225 43.7121 62.5539 43.8745L62.7818 43.7206C62.8494 43.1232 62.4473 43.4096 62.5602 42.8391L62.8715 42.6494C63.0763 42.7877 63.0108 42.7354 63.1575 42.9257C63.718 42.842 63.4847 42.4537 63.9396 42.39C64.1127 42.6812 64.0937 42.6703 64.1211 43.0018C63.2821 44.6118 62.4652 46.1871 61.7486 47.8413C60.5824 50.5298 59.7772 53.2367 58.8347 55.9749C62.4652 53.1204 66.4936 51.2823 71.5616 51.4653C72.4038 51.4957 73.1964 51.5687 73.9858 51.8365C74.9483 52.0647 76.3382 52.3024 76.9968 52.9272C77.0918 53.2437 77.0306 53.2381 76.8005 53.525C73.589 57.1541 69.2619 58.7555 64.1348 56.9448C66.2519 55.631 66.9759 55.3056 69.3569 54.4831C69.3231 54.2966 69.3125 54.3545 69.1363 54.1672L68.3152 54.1582C65.6715 54.5012 63.4467 56.0553 61.8943 57.8637C57.7371 62.7102 57.7466 70.4589 58.8009 76.1644C59.469 79.7813 61.0046 83.2407 63.3106 86.3216C64.3976 86.3795 65.4815 86.4673 66.5622 86.5868C68.3036 86.7435 71.2587 86.9934 72.923 87.2758C74.466 87.3609 76.7034 87.7892 78.3129 87.9992C82.5038 88.6139 86.7644 89.2069 90.9068 90.0191C92.2545 90.2834 94.1415 90.5994 95.3816 90.9941C94.3515 91.0466 92.2883 90.7316 91.1168 90.6284L81.4136 89.8434C77.9308 89.5646 74.4407 89.3491 70.9473 89.197C68.7405 89.1001 65.7939 89.0648 63.6525 88.8756C62.9328 88.8765 62.042 88.8086 61.317 88.7624C58.2796 88.5714 55.2401 88.5958 52.2016 88.4709C51.8576 88.4573 51.4586 88.4166 51.1526 88.2726C49.2054 87.3591 47.6276 86.0029 45.4387 85.4724L45.2656 85.4307C48.8202 82.6594 50.5183 77.7814 51.6 73.8567C53.429 67.2222 53.7393 57.2295 49.4534 51.2396C50.3895 48.9759 50.895 46.0479 52.3747 43.8679C53.1715 44.8482 55.01 48.4523 55.4585 48.848L55.562 48.7675C55.6348 48.3332 55.5282 48.0386 55.4311 47.6075C55.5978 46.4492 55.5757 46.2203 55.258 45.0976C55.6949 45.1723 55.8638 45.2798 56.1614 45.1392C56.2184 44.7614 56.2078 44.2151 56.573 44.0077C56.8179 44.0793 56.9973 44.1604 57.221 44.2709C57.5134 44.0534 57.9091 43.7248 58.2468 43.5922C58.365 43.8104 58.4463 43.9512 58.5856 44.1595L58.7186 44.1602L58.7123 43.753C59.0521 43.9417 59.0711 43.9617 59.469 44.0839C59.7096 43.9732 60.7724 42.1645 61.1872 41.7083Z" fill="url(#paint0_linear_606_1628)"/>
<path d="M78.8603 87.2083C82.9175 87.9851 87.0421 88.7344 91.0522 89.7605C92.3569 90.0946 94.1837 90.4938 95.3842 90.9926C94.387 91.0589 92.3896 90.6608 91.2555 90.5304L81.8621 89.5386C78.4905 89.1862 75.1117 88.914 71.7299 88.7218C69.5936 88.5994 66.741 88.5548 64.668 88.3157L65.0051 88.0789C66.1106 87.9656 66.9862 88.1384 67.9997 88.1281C68.6056 88.1212 68.7077 87.3113 69.9236 87.6316C70.605 88.7104 71.0873 88.3225 72.2122 88.2265L72.3205 88.0205C72.1498 87.7437 72.0885 87.8009 71.732 87.6648L71.7299 87.5321C72.7118 87.1546 73.5649 88.1681 74.5896 88.0331C74.8011 88.0057 75.5102 87.9622 75.6624 88.0937C75.1986 88.2047 74.7337 88.3065 74.2678 88.398L74.4221 88.3683C75.0474 89.2412 76.869 87.0768 77.6987 88.6223C78.611 88.8899 81.2307 89.367 81.9152 88.5113C81.5484 87.9324 79.7655 88.4735 78.8603 87.2083Z" fill="#116924"/>
<path d="M66.7824 85.3125C68.4166 85.6045 71.1898 86.0704 72.7517 86.597C72.0772 86.6696 71.8059 86.8097 71.1878 87.0764C69.9755 87.598 67.3964 86.4654 66.299 85.5589L66.2852 85.3952L66.7824 85.3125Z" fill="#116924"/>
<path d="M77.3308 52.9761C76.8845 53.0274 76.7503 53.1781 76.3159 52.9956C75.9384 52.8373 75.8339 51.9906 75.6416 51.9303C74.8107 51.6701 73.5275 51.598 72.75 51.2927L72.864 51.1875C73.3946 51.2372 73.626 51.2319 74.165 51.22C75.2475 51.4573 76.8109 51.7045 77.5516 52.3543C77.6584 52.6835 77.5896 52.6777 77.3308 52.9761Z" fill="#116924"/>
<path d="M52.4642 77.4472C52.5375 76.6766 53.883 72.8587 54.254 72.0417C54.2388 72.6611 54.1633 73.3681 54.1156 73.9944C54.1167 75.8132 54.2121 76.8578 54.5098 78.656C55.0203 80.4695 55.3204 81.7238 56.1612 83.4884C56.5019 84.1053 58.2382 86.6345 58.1963 86.9953L57.9463 87.1414C56.2961 87.3974 54.1947 86.9137 53.2957 85.79C51.1757 83.1379 51.5373 80.3218 52.4642 77.4472Z" fill="#6DA621"/>
<path d="M56.5849 83.1522C56.322 83.3415 56.4634 83.254 56.1606 83.4167C54.9859 82.4169 52.5748 78.7613 53.5991 77.7292L54.0106 77.8015C54.8064 79.8096 55.2741 81.1984 56.5849 83.1522Z" fill="#92BF1E"/>
<path d="M51.7305 77.0685C51.8628 76.3519 54.2936 72.8015 54.9638 72.0417C54.9364 72.6177 54.7999 73.2752 54.7138 73.8576C54.2095 74.329 54.5163 74.8075 54.1486 75.1854C53.323 76.0339 52.5561 76.8751 51.8019 77.7292L51.7305 77.0685Z" fill="#92BF1E"/>
<path d="M22.4965 9.49934C25.6219 9.36469 27.88 9.9076 30.7171 11.0445C34.8471 12.6997 37.9887 17.2325 35.8133 21.0776C37.7403 23.6078 37.324 22.9626 36.4394 25.9117C36.2121 26.6695 36.8468 27.9837 35.7166 28.7395C33.8519 29.9868 30.0687 29.6825 27.7837 29.6447C29.1828 31.6222 29.1208 32.2161 26.2664 32.2292C22.8945 31.9749 19.7196 30.3283 17.3678 28.2911C16.7817 27.8898 15.6925 26.5723 15.1309 26.28C11.956 24.642 10.3195 23.9264 9.79726 20.5276C8.7837 13.9313 15.8101 10.2133 22.4965 9.49934Z" fill="#FE7301"/>
<path d="M23.7708 11.3775C25.0634 11.3461 25.6587 11.6097 26.467 12.4341C28.7596 12.4218 28.4213 12.6139 30.1997 13.7725C30.5542 14.0012 31.3428 14.2937 31.5865 14.597C33.657 17.1747 31.0743 19.0265 28.0888 18.9232C26.8068 20.2472 25.3245 20.1451 23.5849 19.6734C21.2691 21.364 21.0004 21.537 20.7594 24.1539C19.8667 25.288 19.3007 24.1998 18.8848 23.5039C18.4559 22.7866 17.9346 21.8214 17.0135 21.4785C15.6515 20.9715 14.1335 20.4193 13.9834 18.9721C13.9557 18.6891 13.9479 18.5868 13.8306 18.3295C12.5846 17.4545 12.8949 16.3173 13.2384 15.1217C14.8721 13.7541 18.125 11.6356 20.5306 11.6295C21.0161 11.6283 21.7474 12.0825 22.1753 11.8975C22.7466 11.6504 23.1198 11.4695 23.7708 11.3775Z" fill="white"/>
<path d="M23.7302 11.4263C24.1916 11.372 24.979 11.2645 25.2011 11.7192C25.0638 12.3465 24.2875 12.7543 24.4755 13.3178C25.171 13.5263 26.8924 11.4888 28.2059 13.035C28.4313 13.6713 27.8548 14.093 27.6334 14.8116L27.7509 14.8943C28.5599 14.7559 28.8528 13.7003 29.5378 13.9637C30.4519 14.3151 30.922 15.2934 30.6318 16.2172C30.4499 16.7951 30.0253 17.274 29.46 17.5389C28.6376 17.9215 28.2831 17.6893 27.5511 17.4479C27.1964 17.4521 26.7371 18.262 26.409 18.5334C25.3409 19.4167 22.9949 17.7412 22.3518 18.164C22.2631 18.4709 22.399 18.678 22.5235 18.9865C21.0488 20.0939 20.3568 21.0218 20.083 22.75C19.1408 20.9167 18.6212 20.9725 16.8829 19.9415C16.0969 19.4752 15.897 19.1151 15.7239 18.2865C16.0943 17.5742 16.5038 17.545 16.974 16.8414L16.8997 16.65L16.6792 16.5561C16.0395 16.6872 15.7771 17.3578 15.0897 17.1868C14.8422 16.9053 14.7164 16.7219 14.6056 16.3562C14.4993 15.9927 14.5489 15.6035 14.7434 15.2752C15.1224 14.6268 15.7378 14.3331 16.4465 14.1513C16.9195 13.3834 17.6599 12.1653 18.7827 12.6901C19.26 13.2079 19.0061 14.142 18.544 14.5864C18.0284 14.8026 17.9063 14.4662 17.4537 14.5835C17.1704 15.0722 17.4997 15.266 17.692 15.6841C17.8731 16.0778 17.4479 16.363 17.5786 16.806C18.3238 17.2784 19.1278 17.6595 19.9717 17.9403C20.1821 17.8752 21.1555 16.7808 21.4776 16.4756L21.4574 16.3708C20.7254 16.3717 19.7863 17.1066 19.3523 16.92C18.0769 16.3713 19.4832 14.5096 19.9372 13.7595C19.7796 12.9837 19.6204 12.5759 20.0219 11.8754C21.0932 11.1415 22.3715 13.357 22.8901 13.3824C23.3145 12.6045 22.38 12.0097 23.7302 11.4263Z" fill="#FE7301"/>
<path d="M24.5029 15.1667C25.4821 15.1652 25.151 15.6939 26.033 15.8629C26.5735 15.8549 26.8769 15.7301 27.3579 15.5872C28.4023 16.1146 30.4409 16.5393 30.7166 16.8562L30.5469 17.0532C27.6106 17.1869 28.2006 15.8287 25.4685 16.5154C25.2208 16.5777 24.9582 16.4278 24.7812 16.3359C24.7317 15.9922 24.6272 15.921 24.2641 15.6422C24.2337 15.3541 24.2286 15.4536 24.5029 15.1667Z" fill="white"/>
<path d="M22.6926 17.0625C22.7617 17.0904 23.9494 18.3433 24.1278 18.4504C24.2595 18.5296 24.2437 18.7757 24.2456 18.9583C23.8141 18.8478 22.9235 18.2955 22.6985 17.7742C22.5817 17.5035 22.6348 17.3403 22.6926 17.0625Z" fill="white"/>
<path d="M69.7356 9.50899C72.7736 9.24958 75.1793 10.6999 76.5443 13.2325C80.4447 7.99117 88.1118 10.7957 87.2312 17.149C86.7711 20.4652 83.8769 23.0737 81.2088 25.0254C79.1557 26.4955 77.3145 27.5153 74.9088 28.4375C70.7753 25.6772 66.5222 22.2571 65.0113 17.5161C63.8378 13.8321 65.7358 10.4202 69.7356 9.50899Z" fill="#FA2D0B"/>
<path d="M69.505 11.4639C70.8057 11.3453 71.4598 11.3581 72.7517 11.4281C70.0904 12.1487 69.2189 12.6544 67.3444 14.2355C67.1196 14.5737 66.8758 15.0983 66.3823 15.1667C65.9794 14.4531 66.9313 12.8467 67.3765 12.1928C68.1853 11.8243 68.6408 11.7088 69.505 11.4639Z" fill="white"/>
<path d="M88.9278 35.9021C89.9877 35.2952 91.0605 34.7027 92.1453 34.125C90.8898 36.0016 88.6447 38.8649 86.2624 39.8909C85.9188 40.1431 85.6476 40.2595 85.2489 40.4562C85.7243 41.2721 85.7838 41.5847 85.8529 42.4908C86.0117 45.7047 85.5677 48.9961 82.67 51.439C82.4809 51.6786 81.1379 52.8048 80.8116 53.0833C80.8322 51.8125 81.1023 50.596 81.2384 49.3381C81.3486 48.3318 81.3854 47.2527 81.4361 46.2392C80.0197 47.3762 79.3758 47.8697 77.5941 48.5551C75.5241 49.3916 73.3924 49.5128 71.1289 49.3711C72.3606 48.5211 73.065 47.9275 74.0893 46.9133C74.9817 45.8271 75.5662 45.3389 76.0567 44.0443C77.0561 41.3996 74.7764 40.1927 72.9365 38.3379C72.2558 37.6616 71.6562 36.9354 71.143 36.1688C79.8123 38.4364 80.3341 39.6923 88.9278 35.9021Z" fill="url(#paint1_linear_606_1628)"/>
<path d="M82.503 51.1875C82.2559 50.4152 82.917 50.4852 83.3375 49.8505C83.7461 49.2341 84.0585 48.6347 84.556 48.0434L84.6448 47.9392C84.311 47.4097 84.6694 47.287 85.1134 46.782C84.9133 46.0457 85.4718 45.5627 85.4247 44.8226C85.4022 44.4582 85.3659 44.0113 85.4793 43.6612L85.6547 43.6042C85.812 46.3279 85.3723 49.1172 82.503 51.1875Z" fill="#0981BD"/>
<path d="M89.4982 35.878C90.372 35.2793 91.2564 34.6948 92.1507 34.125C91.1157 35.9761 89.2648 38.8005 87.3008 39.8125C87.3952 39.24 90.8164 36.7209 90.6721 35.6665L90.5394 35.5892C90.1537 36.0493 90.1092 35.9113 89.4982 35.878Z" fill="#0981BD"/>
<path d="M74.0899 47.3958C74.2152 48.0201 73.3377 48.1194 73.1508 48.6496C73.247 48.9082 73.1367 48.8078 73.4912 48.9612C74.8669 49.105 76.4662 48.4475 77.5955 48.6367C75.525 49.2689 73.3929 49.3605 71.1289 49.2534C72.3608 48.611 73.0654 48.1623 74.0899 47.3958Z" fill="#0981BD"/>
<path d="M53.7082 13.2708C52.0233 16.3391 51.8676 17.3484 51.3028 20.685C51.1514 21.706 51.1093 22.523 51.0578 23.548C51.0915 25.7476 51.6689 29.2519 52.3756 31.3557C53.2223 33.8139 54.2403 35.3822 55.3047 37.6868C56.6288 40.0122 57.2325 41.2892 58.3705 43.6059C59.1982 42.2524 60.1711 40.9291 61.1376 39.6445L61.4332 39.7729C61.3238 40.2054 60.5297 41.0122 60.2521 41.5586C59.8387 42.01 58.7796 43.7997 58.5398 43.9092C58.1433 43.7882 58.1244 43.7685 57.7857 43.5817L57.7921 43.9847L57.6595 43.984C57.5207 43.7779 57.4397 43.6385 57.3219 43.4226C56.9854 43.5539 56.591 43.879 56.2996 44.0943C56.0767 43.9849 55.8979 43.9047 55.6539 43.8338C55.29 44.039 55.3005 44.5796 55.2437 44.9535C54.9471 45.0926 54.7788 44.9862 54.3434 44.9123C54.66 46.0232 54.6821 46.2497 54.5159 47.3958C54.1425 46.2649 53.888 45.0488 53.6167 43.8928C53.3569 43.4071 52.7059 41.5396 52.4345 40.8914C51.3281 37.7996 49.8798 34.4865 49.2099 31.3428C49.0395 30.8872 48.7924 29.6151 48.7114 29.1018C47.8963 23.938 49.4129 17.0841 53.7082 13.2708Z" fill="#6DA621"/>
<path d="M53.3499 13.2708C51.7809 16.4873 51.636 17.5453 51.1101 21.0431C50.969 22.1134 50.9299 22.9698 50.8819 24.0444C50.9132 26.3502 51.4509 30.0238 52.109 32.2291L51.7065 32.1897C51.448 31.9079 51.5351 31.8723 51.5008 31.3927C51.2697 31.0687 51.3814 31.1739 50.925 31.0293C51.0866 30.9638 51.0082 30.9822 51.16 30.9688C51.3138 30.2696 50.782 30.1766 50.1933 30.1835L50.1581 29.9844C50.4284 29.8183 50.5704 29.9176 50.9886 29.9705C51.0905 29.2892 50.3745 29.3307 50.448 28.7978L50.7741 28.9849C50.8711 28.7771 50.829 28.7297 50.8133 28.4691L50.0748 27.9235L50.1179 27.7795C50.353 27.7235 50.3863 27.7311 50.5998 27.6313C50.1708 26.8318 50.2707 25.4838 50.2952 24.5937C50.2462 24.6395 50.1973 24.6853 50.1483 24.7311C49.7928 24.5968 49.5274 24.3964 49.2296 24.6332L49.307 24.8807C48.8418 25.3857 48.6949 25.6843 49.0925 26.3049L49.2678 26.3988L49.1581 26.4573C49.1669 26.7323 49.1072 26.8083 49.117 27.0951C49.5156 26.9439 49.356 26.6706 49.641 26.74C49.8055 27.4674 49.0259 27.331 49.8868 28.0413C49.3746 28.161 49.8613 27.5492 49.2512 28.1031C49.0514 28.5809 49.1836 29.8552 49.3001 30.3444C49.6899 30.2856 49.6929 30.2146 49.9426 30.3682L49.9221 30.658C49.5665 30.5793 50.0033 30.2732 49.5832 30.4148C49.3511 31.2486 49.6361 31.552 49.5029 31.9972C49.3423 32.089 49.4333 32.0556 49.2247 32.085L49.1611 32.2157C49.0024 31.7381 48.7722 30.4045 48.6968 29.8664C47.9378 24.4533 49.3501 17.2683 53.3499 13.2708Z" fill="#92BF1E"/>
<path d="M51.4097 22.75C51.4097 22.1367 51.2789 20.7641 51.0925 20.1467C51.0285 19.938 50.2521 19.6846 50.1172 19.1732L50.2786 19.0352C50.6765 18.9546 50.6723 18.9285 51.0619 19.0002C51.3123 19.231 51.3791 19.293 51.7338 19.426C51.5335 20.6114 51.4778 21.5599 51.4097 22.75Z" fill="#85B61E"/>
<path d="M53.7734 44.4487C53.7768 44.5294 53.7666 44.476 53.8573 44.5971L54.0228 44.3082C53.8063 43.1615 54.4332 43.5707 54.881 42.5434C54.7427 42.3056 54.7654 42.3986 54.7495 42.1424C55.2132 41.8351 55.0057 41.9245 55.6723 41.8631L55.5351 41.4599L55.6304 41.3591L56.0079 41.5041L56.1473 41.393C56.043 41.2143 55.9897 40.7524 55.924 40.4969C55.4308 40.1867 55.9319 40.597 55.3492 40.5735L55.3005 40.4199L55.6621 40.2542C55.517 39.5221 54.0477 38.4797 54.8243 37.9167C56.2516 40.1871 56.9024 41.4338 58.129 43.6957C59.0212 42.3742 60.0699 41.0823 61.1118 39.828L61.4303 39.9534C61.3124 40.3756 60.4565 41.1633 60.1572 41.6968C59.7117 42.1375 58.57 43.8849 58.3115 43.9918C57.8841 43.8737 57.8637 43.8544 57.4987 43.6721L57.5055 44.0655L57.3627 44.0648C57.213 43.8636 57.1257 43.7275 56.9987 43.5167C56.6359 43.6449 56.2108 43.9623 55.8968 44.1725C55.6564 44.0657 55.4637 43.9874 55.2007 43.9182C54.8084 44.1185 54.8198 44.6463 54.7586 45.0113C54.4389 45.1472 54.2575 45.0433 53.7881 44.9711C54.1294 46.0557 54.1532 46.2768 53.974 47.3959C53.5716 46.2917 53.2972 45.1044 53.0047 43.9758C52.7247 43.5015 52.023 41.6782 51.7305 41.0454L51.7906 40.5456L51.9549 40.4914C52.5241 40.8651 53.7428 43.8162 53.7734 44.4487Z" fill="#4E9422"/>
<path d="M49.2851 22.8013L49.6516 22.75C50.0302 22.9677 49.9956 22.9597 50.1166 23.2863L49.7588 24.1496L49.8729 24.1028L49.859 24.4676C49.5046 24.643 49.6481 24.6016 49.2159 24.6458L48.9065 24.5317C48.2046 23.7777 48.4639 23.4149 49.2851 22.8013Z" fill="#85B61E"/>
<path d="M38.8969 3.79169C41.2339 4.61787 44.4106 6.80171 45.9343 8.69539C48.398 11.7604 48.7345 13.8616 48.3841 17.567C46.6768 15.6298 45.3625 12.708 43.0536 10.9272C43.543 12.4148 45.4231 15.3497 46.2857 16.7204C46.7482 17.4063 47.2257 18.2056 47.5543 18.9584C46.6391 18.7113 45.7298 18.4461 44.8791 18.0319C38.9271 14.6609 38.5351 9.78869 38.8969 3.79169Z" fill="#92BF1E"/>
<path d="M46.1156 17.0625C46.3952 17.6436 46.6837 18.3206 46.8823 18.9583C46.3292 18.7491 45.7797 18.5244 45.2656 18.1735C45.475 18.0582 45.4072 18.1553 45.514 17.9323C45.4264 17.7678 45.4162 17.767 45.3718 17.5769L45.4888 17.4036C45.7911 17.3342 45.8685 17.3385 46.1156 17.0625Z" fill="#85B61E"/>
<path d="M1.62109 25.7691C4.60389 24.8371 7.69796 24.221 10.8186 25.0014C13.3639 25.6379 15.5468 26.709 16.8545 28.6788C17.216 29.1139 17.488 29.5675 17.7875 30.0339C17.0424 29.7213 16.2903 29.4202 15.5317 29.1309C14.705 28.888 9.75926 27.1059 9.12551 27.6149C10.2981 28.3193 16.6995 30.7302 17.1059 31.7574C16.0993 32.2941 12.6283 32.3235 11.276 32.0911C6.54682 31.2785 4.17181 28.9748 1.62109 25.7691Z" fill="#92BF1E"/>
<path d="M16.4468 30.3333C16.9649 30.942 17.3548 31.5767 17.7841 32.2291C16.7161 31.7918 15.6381 31.3705 14.5508 30.9658C15.4003 30.9741 16.1729 31.0944 16.4468 30.3333Z" fill="#92BF1E"/>
<path d="M56.0133 24.6499L55.9227 24.7752C55.1738 25.8265 54.5771 27.3028 54.1001 28.4472C53.91 28.9026 53.6054 30.0681 53.3487 30.4222L53.1385 30.4337C51.7879 28.8566 51.4078 26.1416 52.0031 24.2913C53.0944 20.9005 55.5979 18.9992 59.296 17.0625C61.1399 20.3081 62.3483 23.5219 60.5332 26.9503C59.2431 29.3895 56.9347 30.6328 54.3594 32.2292C54.8843 29.5918 55.6798 28.2625 56.3091 25.9399C56.2864 25.4022 56.4199 24.9363 56.0133 24.6499Z" fill="#FE7301"/>
<path d="M92.3922 22.75C93.7273 22.7553 95.6116 23.0584 96.999 23.2363C95.602 27.5999 93.2944 30.9362 89.1323 32.0485C88.1971 32.2983 83.9294 32.4802 83.7534 31.2333C84.0531 30.8902 86.2189 29.5277 86.7702 29.1651C87.8387 28.3849 88.9926 27.6764 90.0867 26.8971C87.265 27.2703 84.8976 28.8923 82.4492 30.4064C84.7622 25.2639 87.3162 23.247 92.3922 22.75Z" fill="#FE7301"/>
<path d="M65.7667 3.81328C65.9948 3.7805 65.8684 3.78058 66.1446 3.84487C66.1878 3.91893 66.2487 4.01164 66.2534 4.08839C66.3739 6.1436 66.0954 8.44868 64.1849 10.1142C62.0883 11.942 58.9095 12.9692 55.6559 13.2709C56.1871 12.7007 57.164 12.0176 57.7876 11.4507C58.658 10.6598 59.4547 9.8709 60.2807 9.05835C60.4632 8.8723 60.7511 8.47781 60.9184 8.26612C58.52 9.63174 57.1031 10.9264 54.9609 12.2852C56.0256 7.09704 58.5925 5.46504 65.7667 3.81328Z" fill="#FE7301"/>
<path d="M8.08203 37.2297C11.6721 34.8676 16.0688 33.2323 20.7117 34.6564C22.1042 35.1154 23.1027 35.4573 24.2485 36.2551C22.6222 36.1593 20.0808 36.1984 18.7773 36.0942C17.4107 36.1802 16.6335 36.263 15.3366 36.6022C16.7865 36.8047 23.0111 36.52 23.6874 37.2534L23.6269 37.4813C22.8655 38.2222 21.0486 39.0185 19.9273 39.3593C15.881 40.5896 11.2341 39.1263 8.08203 37.2297Z" fill="#85B61E"/>
<path d="M20.0715 34.125C21.7173 34.6693 22.8975 35.0747 24.2517 36.0208C22.3296 35.9072 19.3258 35.9535 17.7852 35.83C18.1872 35.5122 19.6116 35.7452 20.0681 35.2914L19.6704 34.8994C19.6008 34.473 19.6394 34.5971 20.0715 34.125Z" fill="#92BF1E"/>
<path d="M25.978 32.2292L26.6946 32.3697C27.4438 32.5165 28.5326 32.7096 29.2489 32.897C33.0105 33.5662 40.6088 36.0515 42.7045 38.7515C44.2641 40.7616 43.338 41.4721 43.6497 43.068C43.6023 43.2838 43.5707 43.3515 43.4792 43.5602L43.3154 43.6042C41.9526 42.4607 40.5539 41.3447 39.1203 40.2572C36.1033 38.2674 34.1159 37.3129 30.7601 35.7537L28.2455 34.7853L26.7773 34.2647C26.0107 34.04 25.3209 33.8075 24.5699 33.5514L24.25 33.1377C24.5558 32.3422 25.0103 32.2487 25.978 32.2292Z" fill="#85B61E"/>
<path d="M38.8084 40.4143C38.8179 40.109 38.7358 39.9913 38.9517 39.8125C39.6163 40.2268 39.986 40.5011 40.5841 40.967C41.2875 40.8992 40.3838 40.6871 41.2643 40.7175L41.3431 40.8247L41.0232 41.0366C41.0353 41.6557 43.0422 42.3801 43.6507 43.0931C43.6 43.2988 43.5662 43.3634 43.4684 43.5623L43.2933 43.6042C41.8364 42.5144 40.3411 41.4507 38.8084 40.4143Z" fill="#92BF1E"/>
<path d="M27.6347 32.2292C28.0637 32.3444 28.6871 32.496 29.0971 32.6431C28.7659 32.6616 28.4827 32.6893 28.1514 32.6544L28.1543 32.7231C28.4093 32.9021 28.8833 33.1813 29.0142 33.4442C28.9569 33.7095 28.8651 33.7049 28.6076 33.7352L28.4751 33.7707C28.4939 33.885 28.5212 34.0103 28.5227 34.125L27.6821 33.7165L27.7978 33.608C27.8165 33.1774 27.4711 33.2653 27.4807 32.8415C27.782 32.5708 27.8052 32.6003 27.6347 32.2292Z" fill="#92BF1E"/>
<path d="M65.7954 28.4375C66.1118 28.4479 65.976 28.4145 66.2004 28.5578C66.4977 29.608 65.9401 31.5959 65.1963 32.5678C63.5425 34.7257 60.7556 35.34 57.6625 36.0208C57.8835 35.5566 58.1673 35.1175 58.4422 34.6673C58.523 34.4538 58.5522 34.5466 58.4164 34.3754C57.9553 34.427 57.0263 34.9463 56.582 35.169C56.9321 33.0175 58.3614 30.937 61.0732 29.7559C62.5564 29.1099 64.1349 28.7954 65.7954 28.4375Z" fill="#85B61E"/>
<path d="M68.2871 33.4946C70.1326 32.3647 73.6914 31.0182 75.9828 30.3333C74.1261 31.727 72.2907 32.6015 70.2054 34.2467C66.8181 37.1061 65.2258 39.361 63.1058 42.7981C63.0766 42.4919 63.0968 42.502 62.9131 42.2331C62.4301 42.2919 62.6777 42.6505 62.0827 42.7279C61.927 42.5521 61.9965 42.6003 61.7791 42.4727L61.4485 42.6478C61.3286 43.1747 61.7556 42.9102 61.6838 43.462L61.4418 43.6041C61.09 43.4542 60.9353 43.3454 60.6305 43.1532C60.6754 42.9362 60.6933 43.0166 60.6003 42.82C60.3986 42.9802 60.207 43.1191 59.9963 43.2707L59.8294 43.2421C59.7733 43.0237 59.9123 41.8525 59.9907 41.6034C60.2866 41.0934 61.1325 40.3403 61.2491 39.9366L60.9342 39.8167C62.1052 37.9096 66.1939 34.8836 68.2871 33.4946Z" fill="#4E9422"/>
<path d="M67.8984 31.8648C69.8369 31.3174 73.5748 30.6651 75.9817 30.3333C74.0315 31.0085 72.1036 31.4321 69.9134 32.2291C69.9922 32.118 70.0181 32.0803 70.1535 31.9745L70.2558 31.8968L70.157 31.8566L69.7627 31.9181L69.6827 31.8962C70.2629 31.7726 72.6768 31.1448 72.9428 30.9806L72.8616 30.9473C72.7239 30.9931 68.4634 31.9142 68.328 31.9331L67.8984 31.8648Z" fill="#6DA621"/>
<path d="M38.8008 30.3373C41.5646 30.2759 44.6945 30.9186 46.4384 32.5917C47.4859 33.31 48.1395 34.8255 48.5006 35.8126L47.3099 34.9223C46.7796 34.6278 44.225 33.2125 43.7077 33.1957C44.0081 33.8316 45.3272 34.4486 45.7132 34.8339C46.3608 35.242 46.7697 35.5605 47.3556 36.0208C46.0206 35.9476 45.3531 35.9342 44.1126 35.6272C40.7391 34.2603 39.5595 33.1182 38.8008 30.3373Z" fill="#92BF1E"/>
<path d="M44.4463 34.125C44.7692 34.7768 44.973 35.2856 45.2651 36.0208C44.5996 35.904 44.2668 35.8826 43.6484 35.3922C43.9539 35.333 44.1414 35.4188 44.4295 35.1433C44.5257 34.698 44.3457 34.963 44.3328 34.3543L44.4463 34.125Z" fill="#85B61E"/>
<path d="M45.2656 32.2292C46.908 33.0747 47.9327 34.8588 48.4989 36.0209L46.6319 34.9728L46.894 34.9002C47.6005 34.071 45.6415 33.2615 45.2656 32.2292Z" fill="#6DA621"/>
<path d="M52.1583 0C53.1816 2.90917 54.0592 4.98399 52.5073 7.96778C52.3903 8.19166 52.2702 8.41387 52.146 8.63452C51.6462 9.64165 50.7573 10.5823 49.9526 11.375C49.8212 11.1498 49.696 10.9208 49.578 10.6883C48.7363 9.00539 48.101 6.93828 48.7979 5.1099C49.2814 3.12376 50.783 1.48848 52.1583 0Z" fill="#92BF1E"/>
<path d="M49.7882 11.375C49.6717 11.1705 49.5606 10.9627 49.456 10.7516C48.7096 9.22386 48.1462 7.34732 48.7642 5.6875C48.7678 5.96194 48.7232 6.36911 48.8525 6.56073L49.3058 6.75163C49.3476 7.38669 48.4975 8.59988 49.6908 8.865C50.1249 8.44001 49.8628 7.79626 50.1786 7.40354L50.317 7.44495C50.5336 7.86294 50.1978 8.06662 50.6319 8.84603L50.7757 8.90695L50.803 9.13935L50.7393 9.03951L50.7958 9.16764C50.824 8.7993 50.8249 8.74583 51.0579 8.45632C51.5057 8.57151 51.24 8.78857 51.7333 8.88717C51.29 9.80145 50.5018 10.6554 49.7882 11.375Z" fill="#85B61E"/>
<path d="M79.2574 32.2811C81.4614 31.9822 83.5894 33.0042 83.9958 34.5571C84.4034 36.1101 82.9337 37.599 80.7233 37.8731C78.5383 38.1441 76.4508 37.1243 76.0482 35.5888C75.6457 34.0533 77.0774 32.5767 79.2574 32.2811Z" fill="#0981BD"/>
<path d="M41.1365 28.0524C39.8549 26.6272 39.0364 25.0204 38.8491 23.1381C38.7894 22.5379 38.7157 21.3168 39.0989 20.8542L40.1155 21.2939L40.6068 21.5318C44.0337 23.2435 45.3248 25.7898 45.2654 29.433C44.703 28.6615 44.1892 27.9162 43.5178 27.2275L43.3213 27.6838L43.3656 27.8183C43.8405 28.3809 44.6231 29.6768 44.9858 30.3334C43.6689 29.793 43.0352 29.5462 41.932 28.6977L41.1365 28.0524Z" fill="#92BF1E"/>
<path d="M43.5883 26.5417L43.8703 27.1801L43.9075 27.3402C44.3064 28.0097 44.9638 29.552 45.2684 30.3334C44.1623 29.6902 43.63 29.3965 42.7034 28.3868L42.0352 27.6188C42.3788 27.5877 43.4442 27.0026 43.5883 26.5417Z" fill="#92BF1E"/>
<path d="M44.6777 26.5417L45.2684 27.4024C44.9683 27.8453 42.7505 28.4077 42.0352 28.4375C42.4938 27.4773 43.1073 26.8225 44.6777 26.5417Z" fill="#85B61E"/>
<path d="M41.0058 20.8542L42.0341 21.1629C41.877 22.2847 41.4547 23.0762 39.2502 22.6174L38.8008 22.183C40.4773 21.7236 40.3022 21.7822 41.0058 20.8542Z" fill="#85B61E"/>
<path d="M64.668 46.9082C65.1013 46.2395 65.3962 45.6828 66.2533 45.1259C67.8568 44.0837 70.3801 43.7289 72.7512 43.6042C72.5223 45.0323 71.6577 46.3933 69.0098 46.9582C68.4413 47.1552 66.3832 47.513 65.7742 47.3579L65.7082 47.2389C65.9222 46.9614 66.397 46.7769 66.8208 46.5702C67.3468 46.2936 67.8674 46.0292 68.3486 45.7284C67.0997 45.9967 65.8785 46.5693 64.668 46.9082Z" fill="#4E9422"/>
<path d="M15.3466 87.6791C16.7979 87.4998 22.1508 86.4084 22.6375 88.3285C22.2314 88.6919 4.70941 90.4328 2.31879 91C2.00387 90.9693 1.9184 90.973 1.62109 90.8723L1.65173 90.6034C6.00724 89.4052 9.71804 88.703 14.0858 87.9467L15.3466 87.6791Z" fill="#116924"/>
<path d="M14.5508 87.7541L15.597 87.2083C15.9194 87.5663 15.9244 87.5238 16.1674 88.2423L16.1666 88.778C15.6736 89.6467 14.9801 88.5978 14.5508 87.7541Z" fill="#1D7523"/>
<defs>
<linearGradient id="paint0_linear_606_1628" x1="66.2083" y1="91.703" x2="57.7772" y2="42.3041" gradientUnits="userSpaceOnUse">
<stop stop-color="#005923"/>
<stop offset="1" stop-color="#2C8125"/>
</linearGradient>
<linearGradient id="paint1_linear_606_1628" x1="84.9419" y1="50.8349" x2="81.1274" y2="34.632" gradientUnits="userSpaceOnUse">
<stop stop-color="#0171B1"/>
<stop offset="1" stop-color="#0B91CF"/>
</linearGradient>
</defs>
</svg>
