<svg width="192" height="36" viewBox="0 0 192 36" fill="none" xmlns="http://www.w3.org/2000/svg">
<path d="M0 1.53385C4.58124 -0.576024 13.7571 -0.41732 18.5416 1.44716C27.3801 4.88937 29.5952 16.4537 26.1378 25.2599C24.6011 29.1076 21.6846 32.1404 18.0375 33.6834C13.7704 35.5279 8.08505 35.4332 3.54423 34.8931C2.73427 34.7957 1.32464 34.6863 0.595919 34.4063L0.519317 34.4236C0.198639 34.1729 0.198764 34.2822 0.168724 33.9235C0.0878664 32.9579 0.122913 31.8603 0.127669 30.8894L0.145443 25.0986C0.152452 17.5033 0.319552 9.03177 0 1.53385Z" fill="url(#paint0_linear_607_1697)"/>
<path d="M8.95111 5.38956C12.3167 5.19076 16.6527 6.01863 18.7777 9.07644C22.6423 14.6362 21.9283 24.1549 16.7153 28.5153C15.1848 29.5996 13.2902 30.3346 11.457 30.5111C10.4737 30.6066 7.31713 30.8695 6.64245 30.1593C6.45498 30.0272 6.46032 29.4452 6.46515 29.1915C6.61193 21.4201 6.34109 13.5978 6.53203 5.83162C7.33152 5.64721 8.14256 5.52557 8.95111 5.38956Z" fill="white" fill-opacity="0.87"/>
<path d="M83.1846 0.774114C84.5611 0.730864 85.046 0.845754 86.2725 1.44044C86.478 5.65327 86.3557 12.2435 86.3073 16.5266C88.5974 14.0951 97.1786 1.73508 99.0335 1.0174C100.246 0.547058 101.836 0.97686 102.962 1.57966C103.374 1.79996 103.594 2.01621 103.736 2.50412C103.707 3.63133 100.661 6.99402 99.7907 8.04689C97.3626 10.9622 94.9482 13.8897 92.5475 16.832C95.44 20.8138 99.6631 27.7567 102.868 31.0451C103.752 31.456 103.996 31.1221 104.865 31.4316C105.437 32.1318 105.335 34.2496 104.592 34.7673C99.3214 38.4341 96.4776 33.0914 94.1121 29.5381C92.6326 27.3296 91.1407 25.1306 89.6362 22.9425C88.7088 21.5882 87.5435 19.7825 86.5037 18.5823L86.3568 18.4147C86.36 24.0021 86.3303 29.5895 86.2681 35.1755C83.8372 35.6363 82.8062 35.7283 80.4552 35.1701C80.1952 24.1224 80.5046 12.7247 80.3086 1.5783C81.4472 1.04173 81.986 0.897107 83.1846 0.774114Z" fill="url(#paint1_linear_607_1697)"/>
<path d="M50.5242 32.0385C47.5415 37.0055 37.6058 37.2342 33.8179 33.104C26.8196 25.4725 31.3233 10.6205 42.1451 10.7239C45.0723 10.7525 47.0905 11.5853 49.18 13.7137L49.5343 14.2934C50.2154 15.1194 50.683 16.9211 50.7522 18.0152C51.2197 25.4113 41.6212 25.5937 36.7752 25.7991C38.3184 33.2837 44.463 32.0834 49.2675 29.0515C49.827 30.132 50.1562 30.8859 50.5242 32.0385Z" fill="url(#paint2_linear_607_1697)"/>
<path d="M48.6439 13.7872L48.9231 14.6562C48.7418 15.1437 48.8189 14.9826 48.5588 15.3191C48.1773 15.2457 48.3513 15.3681 48.0276 14.8867L48 14.4073C48.273 13.8382 48.1988 14.0137 48.6439 13.7872Z" fill="#4E9422"/>
<path d="M41.3525 15.3215C42.3502 15.2999 43.266 15.4186 44.0985 16.0645C44.7008 16.5284 45.0981 17.227 45.2004 18.0011C45.324 18.9612 45.0512 19.9295 44.4501 20.6672C43.4351 21.92 42.3566 21.9969 40.9463 22.1169C39.6058 22.183 38.2639 22.2153 36.9219 22.2126C37.009 19.0165 38.145 16.1859 41.3525 15.3215Z" fill="white"/>
<path d="M67.1946 10.7234C75.4239 11.1347 74.7034 17.7443 74.7174 23.7443L74.7698 34.6264C72.5159 35.2972 71.1699 35.6087 69.0015 34.5119C68.4936 29.6552 69.0945 24.5176 68.7887 19.6476C68.4687 14.5513 63.3862 14.5925 60.7055 18.286C59.3915 20.6937 59.7198 23.4182 59.7269 26.0975C59.7542 28.9178 59.7457 31.7395 59.7015 34.5612C57.6712 35.2 55.7136 35.055 53.6727 34.6011C53.4953 28.7129 53.7657 22.7221 53.6424 16.8232C53.6096 15.2514 53.5078 13.7207 53.5486 12.1449C54.3328 11.3955 55.4037 11.3929 56.4212 11.3529C59.5027 11.2358 59.564 12.5548 59.5886 15.1675C59.8728 14.7563 60.1637 14.3503 60.461 13.9483C62.139 11.7083 64.5874 11.0761 67.1946 10.7234Z" fill="#1D7523"/>
<path d="M173.083 30.8634C174.008 29.4151 174.33 27.9764 172.651 26.9705C168.456 24.4538 161.66 23.878 163.127 16.4979C164.138 11.4127 169.95 10.0271 173.971 11.0262C177.24 11.8238 180.051 13.3346 176.703 16.9403C174.821 15.7956 172.442 14.3623 170.205 14.9503C169.056 15.2525 167.814 16.5592 168.261 17.9789C168.595 19.0392 169.757 19.6517 170.624 20.0668C173.57 21.496 177.321 22.178 178.699 25.8449C179.242 27.2904 179.186 29.7391 178.614 31.1642C177.856 33.0521 176.175 34.4459 174.414 35.1687C171.191 36.4903 167.868 36.1569 164.72 34.7277C164.462 34.6106 164.051 34.352 163.836 34.1859C163.253 33.8252 162.696 33.5421 162.506 32.7486C162.231 31.593 163.257 29.3294 164.321 29.0789C164.934 29.3199 165.868 30.1597 166.429 30.6184C168.56 31.7958 170.901 32.0571 173.083 30.8634Z" fill="#FE7301"/>
<path d="M114.721 10.8316C118.956 10.196 123.06 12.3922 124.989 16.5591C126.636 20.1081 126.914 24.2234 125.76 27.9965C123.632 34.9069 117.896 37.4332 111.543 35.2207C109.798 34.6135 107.36 33.2594 108.155 30.8772L108.207 30.7223C108.467 30.3502 110.469 27.7058 111.001 28.3618C111.878 29.4416 112.701 31.1121 114.175 31.3498C117.864 31.9433 119.863 29.6765 120.315 25.8519C120.634 23.5158 120.576 19.2144 119.131 17.2532C116.377 13.5141 112.955 15.315 110.427 17.5574C105.048 13.2805 111.188 11.4048 114.721 10.8316Z" fill="#FE7301"/>
<path d="M147.758 10.8062C150.159 10.4503 152.984 11.2571 154.908 12.9347C160.313 17.6496 160.081 30.4276 153.972 34.3424C151.518 35.9507 148.263 36.4628 145.517 35.55C143.242 34.7934 140.445 33.7596 141.436 30.4656C141.668 30.0812 143.356 27.8046 143.872 28.276C145.121 29.565 145.311 30.8039 147.191 31.3187C154.715 33.378 155.132 15.5672 148.593 15.1543C146.252 15.0076 145.071 16.0263 143.4 17.5531C138.312 13.1969 144.372 11.2952 147.758 10.8062Z" fill="#FE7301"/>
<path d="M134.494 0.797871C135.6 0.701674 135.941 0.752448 135.972 1.97095C136.039 4.53487 136.003 7.10547 135.995 9.67207L136.01 22.6293C136.011 24.3555 135.704 29.979 136.581 31.0733C137.551 31.6531 138.622 30.766 139.179 32.0179C140.084 34.0514 137.822 35.5291 136.066 35.823C134.739 36.0448 134.83 36.1129 133.507 35.7001C132.011 35.3059 130.586 34.018 130.341 32.4882C129.951 30.0552 130.1 27.3483 130.105 24.8792L130.118 12.6034C130.116 10.2225 130.184 7.18564 129.972 4.86221C127.792 3.06519 127.48 1.86405 130.705 1.29622C131.972 1.0731 133.213 0.932814 134.494 0.797871Z" fill="#FE7301"/>
<path d="M185.334 11.5962C185.89 11.5369 186.45 11.4749 187.01 11.4924C187.556 11.5113 188.267 11.6137 188.651 12.0518C189.692 13.2379 188.006 29.7573 189.589 31.1065C190.151 31.5863 191.005 31.3949 191.681 31.3383C192.296 34.2888 192.265 34.7026 189.348 35.7081C188.595 35.9089 188.047 36.0693 187.255 35.9696C185.818 35.7836 184.527 35.0058 183.698 33.8278C182.352 31.9327 183.03 22.4141 182.837 19.6739C182.762 18.6051 182.719 13.2972 182.878 12.3847C183.369 11.7498 184.52 11.7121 185.334 11.5962Z" fill="#FE7301"/>
<path d="M186.03 0.0267821C188.066 -0.222605 189.908 1.29785 190.132 3.41229C190.355 5.52672 188.874 7.42528 186.834 7.63981C184.816 7.85166 183.013 6.33655 182.792 4.24625C182.571 2.15596 184.016 0.272147 186.03 0.0267821Z" fill="#FE7301"/>
<defs>
<linearGradient id="paint0_linear_607_1697" x1="13.144" y1="0.287956" x2="14.2284" y2="34.3167" gradientUnits="userSpaceOnUse">
<stop stop-color="#6FA514"/>
<stop offset="1" stop-color="#026026"/>
</linearGradient>
<linearGradient id="paint1_linear_607_1697" x1="93.2351" y1="35.8876" x2="90.3128" y2="0.541577" gradientUnits="userSpaceOnUse">
<stop stop-color="#FF4F00"/>
<stop offset="1" stop-color="#FF8101"/>
</linearGradient>
<linearGradient id="paint2_linear_607_1697" x1="40.4643" y1="11.2206" x2="40.6491" y2="35.1321" gradientUnits="userSpaceOnUse">
<stop stop-color="#43871F"/>
<stop offset="1" stop-color="#056228"/>
</linearGradient>
</defs>
</svg>
